<svg xmlns="http://www.w3.org/2000/svg" viewBox="0 0 268.79 639.55"><defs><style>.cls-1{font-size:24px;font-family:Montserrat-Black, Montserrat;font-weight:800;}.cls-1,.cls-3{fill:#f96400;}.cls-2{fill:none;stroke:#fff;stroke-miterlimit:10;stroke-width:4px;}</style></defs><g id="Réteg_2" data-name="Réteg 2"><g id="Layer_1" data-name="Layer 1"><text class="cls-1" transform="translate(37 22.01) scale(0.96 1)">KEFLAVÍK</text><text class="cls-1" transform="translate(37 62.74) scale(0.96 1)">HVERAGERÐI</text><text class="cls-1" transform="translate(37 103.48) scale(0.96 1)">GEYSIR</text><text class="cls-1" transform="translate(37 144.22) scale(0.96 1)">GULLFOSS</text><text class="cls-1" transform="translate(37 184.96) scale(0.96 1)">SKÓGAFOSS</text><text class="cls-1" transform="translate(37 307.17) scale(0.96 1)">SKAFTAFELL</text><text class="cls-1" transform="translate(37 347.91) scale(0.96 1)">JÖKULSÁRLÓN</text><text class="cls-1" transform="translate(37 388.64) scale(0.96 1)">HÖFN</text><text class="cls-1" transform="translate(37 429.38) scale(0.96 1)">SEYÐISFJÖRÐUR</text><text class="cls-1" transform="translate(37 510.86) scale(0.96 1)">MÝVATN</text><text class="cls-1" transform="translate(37 551.59) scale(0.96 1)">AKUREYRI</text><text class="cls-1" transform="translate(37 592.33) scale(0.96 1)">REYKJAVÍK</text><text class="cls-1" transform="translate(37 633.07) scale(0.96 1)">KEFLAVÍK</text><text class="cls-1" transform="translate(37 470.12) scale(0.96 1)">HVERIR</text><text class="cls-1" transform="translate(37 225.69) scale(0.96 1)">VÍK Í MÝRDAL</text><text class="cls-1" transform="translate(37 266.43) scale(0.96 1)">FJAÐRÁRGLJÚFUR</text><line class="cls-2" x1="7.5" y1="14.24" x2="7.5" y2="628.54"/><circle class="cls-3" cx="7.5" cy="14.51" r="7.5"/><circle class="cls-3" cx="7.5" cy="55.24" r="7.5"/><circle class="cls-3" cx="7.5" cy="95.98" r="7.5"/><circle class="cls-3" cx="7.5" cy="136.72" r="7.5"/><circle class="cls-3" cx="7.5" cy="177.46" r="7.5"/><circle class="cls-3" cx="7.5" cy="218.19" r="7.5"/><circle class="cls-3" cx="7.5" cy="258.93" r="7.5"/><circle class="cls-3" cx="7.5" cy="299.67" r="7.5"/><circle class="cls-3" cx="7.5" cy="340.41" r="7.5"/><circle class="cls-3" cx="7.5" cy="381.14" r="7.5"/><circle class="cls-3" cx="7.5" cy="421.88" r="7.5"/><circle class="cls-3" cx="7.5" cy="462.62" r="7.5"/><circle class="cls-3" cx="7.5" cy="503.36" r="7.5"/><circle class="cls-3" cx="7.5" cy="544.09" r="7.5"/><circle class="cls-3" cx="7.5" cy="584.83" r="7.5"/><circle class="cls-3" cx="7.5" cy="625.57" r="7.5"/><circle class="cls-3" cx="7.5" cy="503.36" r="7.5"/></g></g></svg>