<svg xmlns="http://www.w3.org/2000/svg" viewBox="0 0 274 274"><defs><style>.cls-1{fill:#2f3e49;}.cls-2{fill:#f96400;}.cls-3{fill:#f99d00;}.cls-4{fill:#73c8de;}.cls-5{fill:#41ca75;}.cls-6{fill:#546076;}.cls-7{fill:#4a668c;}.cls-8{fill:#b2bdc6;}</style></defs><title>Asset 5</title><g id="Layer_2" data-name="Layer 2"><g id="Layer_1-2" data-name="Layer 1"><path class="cls-1" d="M274,137A137,137,0,1,1,137,0,137,137,0,0,1,274,137Z"/><polygon class="cls-2" points="63.93 187.67 58.97 187.67 58.97 168.49 67.39 159.64 70.99 163.06 63.93 170.48 63.93 187.67"/><rect class="cls-2" x="48.7" y="167.21" width="12.65" height="4.96"/><polygon class="cls-3" points="80.18 163.67 67.85 163.67 60.65 153.5 44.19 153.5 44.19 148.54 63.22 148.54 70.42 158.71 80.18 158.71 80.18 163.67"/><path class="cls-4" d="M83.77,26.24l2.43-1,8.71,5L91.8,22.85l2.6-1.09,5,12-2.24,1-9-5.17,3.21,7.61-2.6,1.09Z"/><path class="cls-4" d="M98.75,20.38l2.73-.85,3.87,12.4-2.73.85Z"/><path class="cls-4" d="M106.61,24.72v0a6.6,6.6,0,0,1,5.22-8,6.72,6.72,0,0,1,5.43.89L115.91,20a4.81,4.81,0,0,0-3.56-.74A3.86,3.86,0,0,0,109.51,24v0a3.85,3.85,0,0,0,4.54,3.2,4.7,4.7,0,0,0,3-2.2l2.16,1.42a6.85,6.85,0,0,1-12.63-1.76Z"/><path class="cls-4" d="M120.75,15.34l9.76-.89.23,2.53-6.93.64.24,2.62,6.1-.56.23,2.53-6.1.56.25,2.72,7-.65.24,2.54-9.85.9Z"/><path class="cls-4" d="M134.57,14.35l2.86.05-.18,10.39,6.48.11,0,2.59-9.34-.15Z"/><path class="cls-4" d="M152,15.26l2.61.36,3.75,13.71-3-.4-.78-3.05-5.44-.74-1.57,2.73-2.89-.4Zm2,8-1.14-4.4-2.28,3.94Z"/><path class="cls-4" d="M163.76,17.27l2.54.7L170,27.3l2.12-7.71,2.72.75-3.45,12.52-2.34-.65-3.87-9.63-2.19,8-2.72-.75Z"/><path class="cls-4" d="M179.42,21.92l4.66,2c3.75,1.59,5.25,5.28,3.82,8.64v0c-1.43,3.37-5.14,4.88-8.9,3.28l-4.66-2ZM180,33.48a3.69,3.69,0,0,0,5.12-2l0,0a3.73,3.73,0,0,0-2.07-5.13l-2-.87L178,32.62Z"/><path class="cls-4" d="M74.82,228l2.71,1.62-1.78,9.59,7.61-6.11L86,234.69l-11.22,8.54-2.17-1.3Z"/><path class="cls-4" d="M90.09,236.4l2.4,1.09-.35,14.22-2.72-1.24.13-3.14-5-2.28-2.29,2.17L79.61,246Zm-.43,8.21.17-4.55-3.31,3.12Z"/><path class="cls-4" d="M99.17,240.44l2.52.76,3.5,9.42,2.32-7.65,2.7.82-3.77,12.42-2.33-.7-3.62-9.73-2.39,7.9-2.7-.82Z"/><path class="cls-4" d="M113.08,244.38l2.81.5-1.83,10.23,6.38,1.14-.46,2.56-9.19-1.64Z"/><path class="cls-4" d="M124.53,246.19l2.84.27-1.25,12.93-2.84-.28Z"/><path class="cls-4" d="M130.58,246.75l9.89.17,0,2.59-7-.11-.05,2.76,6.2.1-.05,2.6-6.19-.1-.09,5-2.85-.05Z"/><path class="cls-4" d="M142.53,246.79l9.75-.92.24,2.53-6.92.65.24,2.63,6.1-.58.23,2.53-6.09.58.26,2.71,7-.66.24,2.53-9.84.92Z"/><path class="cls-4" d="M163.9,246.17l-3.83,1-.66-2.54,10.4-2.73.67,2.55-3.82,1,2.62,10-2.76.73Z"/><path class="cls-4" d="M171.72,241.26l5.54-2.15a5.19,5.19,0,0,1,4-.15,4.11,4.11,0,0,1,2.12,2.37v0a4,4,0,0,1-1.13,4.76l4.63,3.17-3.11,1.21-4.1-2.86-2.09.82,1.51,3.87-2.67,1Zm7.65,3.79c1.3-.5,1.77-1.48,1.38-2.5l0,0c-.44-1.14-1.47-1.42-2.76-.91l-2.65,1,1.35,3.47Z"/><path class="cls-4" d="M184.16,236.08l2.56-1.27,5.78,11.63-2.56,1.28Z"/><path class="cls-4" d="M189.6,233.39l4.53-2.75c2.65-1.61,5.21-1,6.58,1.25l0,0c1.56,2.57.37,5.12-2.12,6.63l-1.85,1.12,2,3.33-2.44,1.49Zm7.77,2.94a2,2,0,0,0,.92-2.86l0,0c-.67-1.09-1.78-1.22-3-.48l-1.89,1.15,2.06,3.39Z"/><path class="cls-5" d="M112.53,86.55a50.19,50.19,0,0,1-8.78-.72L98.43,85l.76-4.9,5.42.84c.33.06,24,4.42,32.84-10.84C148.56,51,169.32,54.21,175.23,57.45l-2.39,4.35c-2.92-1.6-21.07-6.42-31.1,10.8-4.47,7.65-12.51,12.36-23.26,13.61A50.65,50.65,0,0,1,112.53,86.55Z"/><path class="cls-5" d="M105.09,85.56a35.42,35.42,0,0,1-8.24-.9l1.31-4.78c.93.25,22.85,5.88,33.53-16.34,12.53-26.06,38.17-18.6,38.43-18.52l-1.44,4.75c-.88-.26-21.86-6.24-32.52,15.92C128.05,82.57,114,85.56,105.09,85.56Z"/><rect class="cls-6" x="29.31" y="135.31" width="66.37" height="4.96"/><rect class="cls-6" x="179.41" y="135.31" width="64.02" height="4.96"/><rect class="cls-2" x="51.94" y="135.5" width="4.96" height="13.04"/><path class="cls-7" d="M105.54,70.81c-4,0-10.37-2.42-11.1-2.71l1.8-4.62c2.49,1,7.28,2.47,9.5,2.37,2.84-.14,8.76-.41,13.48-6.21l3.85,3.12c-6.13,7.53-13.82,7.89-17.1,8Z"/><path class="cls-7" d="M179.07,81.76c-2-1.76-6-4.8-8.11-5.46-2.72-.85-8.38-2.61-14.79,1.24l-2.56-4.25c8.32-5,15.68-2.7,18.82-1.73,3.82,1.19,9.3,5.93,9.91,6.47Z"/><rect class="cls-4" x="209.56" y="135.31" width="14.6" height="4.96"/><rect class="cls-4" x="209.56" y="155.15" width="14.6" height="4.96"/><rect class="cls-4" x="209.56" y="165.08" width="14.6" height="4.96"/><rect class="cls-4" x="225.07" y="145.27" width="13.21" height="4.96"/><rect class="cls-4" x="225.07" y="175.04" width="13.21" height="4.96"/><rect class="cls-4" x="196.35" y="160.11" width="13.21" height="4.96"/><rect class="cls-4" x="202.95" y="145.27" width="13.22" height="4.96"/><rect class="cls-8" x="51.94" y="116.79" width="4.96" height="10.16"/><rect class="cls-4" x="57.45" y="106.46" width="4.96" height="10.16"/><rect class="cls-4" x="46.91" y="106.46" width="4.96" height="10.16"/><rect class="cls-6" x="46.91" y="91.67" width="4.96" height="10.16"/><path class="cls-2" d="M216.17,125.46a13,13,0,1,1,13-13A13,13,0,0,1,216.17,125.46Zm0-21.09a8.07,8.07,0,1,0,8.06,8.07A8.07,8.07,0,0,0,216.17,104.37Z"/><rect class="cls-8" x="104.07" y="101.21" width="51.46" height="4.96"/><path class="cls-8" d="M182.09,127.33l-15.42-17H97.58l-4,17.64v23.4H106a8.71,8.71,0,1,0,13,0h36.31a8.71,8.71,0,1,0,13,0h13.85Zm-69.62,33.61a3.75,3.75,0,1,1,3.75-3.75A3.75,3.75,0,0,1,112.47,160.94Zm49.28,0a3.75,3.75,0,1,1,3.75-3.75A3.75,3.75,0,0,1,161.75,160.94Zm2.73-45.61L174,125.81h-21.1V115.33Zm-38.31,0H148v10.48H99.16l2.38-10.48ZM98.54,146.45V130.77h78.59v15.68Z"/><rect class="cls-8" x="84.48" y="128.29" width="4.96" height="14.41"/><rect class="cls-6" x="57.45" y="91.67" width="4.96" height="10.16"/><path class="cls-6" d="M155.92,211.93a27.08,27.08,0,0,0-38.29,0L102,196.32a49.12,49.12,0,0,1,69.5,0Z"/><path class="cls-3" d="M117.73,194.69l2.88-1.22a2.23,2.23,0,0,1,1.74-.15,1.38,1.38,0,0,1,.75.75v0a1.41,1.41,0,0,1-.33,1.62,1.46,1.46,0,0,1,1.69.89v0c.41,1-.13,1.88-1.46,2.45l-2.89,1.23Zm3.44,1.17c.48-.2.67-.47.53-.8h0c-.12-.31-.44-.38-.9-.18l-1,.43.42,1Zm1.13,2c.47-.2.67-.5.53-.83h0c-.13-.31-.45-.41-1-.18l-1.18.5.44,1Z"/><path class="cls-3" d="M148.45,197.44l1.27-.72a3.21,3.21,0,0,0,1.59,1.38c.43.15.71.09.8-.15v0c.09-.23-.05-.43-.76-.9-1.11-.74-1.91-1.43-1.47-2.6v0c.4-1.06,1.53-1.51,2.9-1a3.86,3.86,0,0,1,2.06,1.63l-1.21.82a3.14,3.14,0,0,0-1.39-1.16c-.38-.14-.63-.05-.71.15v0c-.1.26.05.45.77.92,1.21.78,1.86,1.51,1.46,2.58h0c-.44,1.17-1.62,1.51-3,1A4.19,4.19,0,0,1,148.45,197.44Z"/><path class="cls-3" d="M135.93,190.32H134.1v-1.47h5.34v1.47h-1.82v8.17h-1.69Z"/><rect class="cls-3" x="142.9" y="193.16" width="2.23" height="2.23" transform="translate(-76.63 95.29) rotate(-29.29)"/><rect class="cls-3" x="128.22" y="193.16" width="2.23" height="2.23" transform="translate(-103.39 211.8) rotate(-60.65)"/></g></g></svg>